#!OML:ASF H:\Dans Jumps\Project 1\Capture day 1\Session 1\subject.ASF
:FULLY-SPECIFIED
:DEGREES
407
root 0.583658 17.7834 -0.290664 4.74678 -1.33054 0.19269
lowerback 6.25714 0.00643633 -1.35318
upperback 2.84796 -0.0532697 1.37488
thorax -0.572227 -0.0454289 2.17697
lowerneck -10.7528 0.284695 -2.92902
upperneck 30.3915 0.80048 0.948349
head 11.6665 0.142417 0.965194
rclavicle 5.76476e-015 1.98785e-015
rhumerus -36.9105 -9.29382 -78.0332
rradius 22.6904
rwrist 39.5658
rhand -17.4668 -24.3903
rfingers 7.12502
rthumb 8.78491 -54.1874
lclavicle 5.76476e-015 1.98785e-015
lhumerus -36.5656 3.16266 81.2747
lradius 9.71786
lwrist 4.85352
lhand -22.6909 -6.21285
lfingers 7.12502
lthumb 3.74164 23.7341
rfemur -30.9253 -4.29548 17.9578
rtibia 32.0543
rfoot 5.75346 3.01331
rtoes 19.9619
lfemur -28.7781 13.3204 -21.265
ltibia 27.4813
lfoot 7.62819 -5.31614
ltoes -11.5834
408
root 0.582641 17.445 -0.170452 4.3578 -1.32655 0.141442
lowerback 6.59569 0.00910141 -1.34153
upperback 2.6349 -0.049868 1.43219
thorax -0.979498 -0.038086 2.23076
lowerneck -11.102 0.28786 -2.9596
upperneck 30.3188 0.787714 1.06877
head 11.7086 0.148765 1.01494
rclavicle 4.57205e-015 3.18055e-015
rhumerus -36.8615 -9.79186 -77.5671
rradius 22.498
rwrist 40.0169
rhand -17.6007 -24.6112
rfingers 7.12502
rthumb 8.65573 -54.4137
lclavicle 4.57205e-015 3.18055e-015
lhumerus -36.419 4.09125 80.7009
lradius 9.08738
lwrist 3.60056
lhand -22.8367 -6.0979
lfingers 7.12502
lthumb 3.60079 23.8514
rfemur -31.7586 -4.41237 18.1573
rtibia 35.6826
rfoot -0.33191 3.97633
rtoes 18.1912
lfemur -29.6018 13.4171 -21.2576
ltibia 31.1324
lfoot 1.50331 -5.19527
ltoes -13.3151
409
root 0.580028 17.131 -0.0774403 4.26362 -1.33382 0.129963
lowerback 6.87707 0.00606499 -1.39316
upperback 2.40763 -0.0575071 1.47198
thorax -1.36914 -0.0362782 2.30307
lowerneck -11.6263 0.306463 -2.88284
upperneck 30.2603 0.809324 1.08393
head 11.7928 0.16948 1.01263
rclavicle 1.78906e-015 8.74653e-015
rhumerus -36.4994 -10.7599 -76.978
rradius 22.1864
rwrist 40.8901
rhand -17.7844 -24.951
rfingers 7.12502
rthumb 8.47842 -54.7608
lclavicle 1.78906e-015 8.74653e-015
lhumerus -35.8726 5.16799 80.2183
lradius 8.26635
lwrist 2.29142
lhand -23.1724 -5.85344
lfingers 7.12502
lthumb 3.27658 24.1011
rfemur -33.3855 -4.40554 18.3261
rtibia 39.8565
rfoot -5.86484 3.65013
rtoes 15.8055
lfemur -31.3057 13.2701 -21.3161
ltibia 35.5222
lfoot -3.82649 -3.52008
ltoes -13.2824
410
root 0.574985 16.8371 -0.00793781 4.37821 -1.37295 0.183162
lowerback 7.15583 0.0152381 -1.53657
upperback 2.222 -0.0562909 1.48716
thorax -1.7149 -0.0304383 2.40121
lowerneck -12.2871 0.334148 -2.69585
upperneck 30.1706 0.854499 0.985412
head 11.894 0.199207 0.952555
rclavicle -1.49089e-015 1.31198e-014
rhumerus -35.8382 -12.2961 -76.2454
rradius 21.7994
rwrist 42.2321
rhand -18.0642 -25.3393
rfingers 7.12502
rthumb 8.2084 -55.1598
lclavicle -1.49089e-015 1.31198e-014
lhumerus -34.9141 6.38392 79.8521
lradius 7.3015
lwrist 0.990729
lhand -23.8436 -5.69141
lfingers 7.12502
lthumb 2.62837 24.2721
rfemur -35.6786 -4.26696 18.411
rtibia 44.3918
rfoot -10.0094 2.45025
rtoes 13.4257
lfemur -33.6806 12.9006 -21.4269
ltibia 40.3553
lfoot -7.80691 -1.2343
ltoes -11.8709
411
root 0.567785 16.561 0.049116 4.53103 -1.47087 0.310967
lowerback 7.50216 0.0564744 -1.78127
upperback 2.13712 -0.0229048 1.47846
thorax -1.99612 -0.00942053 2.52911
lowerneck -12.9999 0.365054 -2.42594
upperneck 29.9825 0.908637 0.797455
head 11.9681 0.231649 0.845365
rclavicle -1.11319e-014 3.57812e-015
rhumerus -34.9788 -14.2705 -75.4561
rradius 21.4745
rwrist 43.7388
rhand -18.3604 -25.8374
rfingers 7.12502
rthumb 7.92252 -55.6689
lclavicle -1.11319e-014 3.57812e-015
lhumerus -33.6821 7.68671 79.6012
lradius 6.41123
lwrist -0.139488
lhand -24.8393 -5.67827
lfingers 7.12502
lthumb 1.66677 24.295
rfemur -38.243 -4.0283 18.3822
rtibia 48.9617
rfoot -12.8399 1.13678
rtoes 11.3919
lfemur -36.3 12.3803 -21.544
ltibia 45.26
lfoot -10.6199 0.886747
ltoes -9.55306
412
root 0.559149 16.3092 0.102745 4.52746 -1.61298 0.489425
lowerback 8.02648 0.134166 -2.0938
upperback 2.18475 0.0478106 1.45413
thorax -2.24177 0.0291918 2.67567
lowerneck -13.6431 0.385488 -2.15333
upperneck 29.6414 0.941039 0.605779
head 11.9677 0.255169 0.731848
rclavicle -1.17283e-014 -3.18055e-015
rhumerus -34.0682 -16.4117 -74.7294
rradius 21.3304
rwrist 45.0111
rhand -18.7044 -26.3546
rfingers 7.12502
rthumb 7.5905 -56.1984
lclavicle -1.17283e-014 -3.18055e-015
lhumerus -32.4161 9.00761 79.4326
lradius 5.89064
lwrist -0.925957
lhand -26.0703 -5.8651
lfingers 7.12502
lthumb 0.477857 24.1141
rfemur -40.5707 -3.79364 18.2638
rtibia 53.1892
rfoot -14.7127 0.0186146
rtoes 9.65034
lfemur -38.6145 11.917 -21.6439
ltibia 49.792
lfoot -12.6404 2.61766
ltoes -8.25658
413
root 0.551721 16.0964 0.159499 4.17178 -1.74439 0.6466
lowerback 8.82524 0.234896 -2.36176
upperback 2.39263 0.143926 1.43206
thorax -2.47545 0.0786243 2.79641
lowerneck -14.1033 0.383168 -1.93923
upperneck 29.1382 0.92522 0.485536
head 11.8655 0.260826 0.646631
rclavicle -1.49089e-015 2.38542e-015
rhumerus -33.199 -18.3577 -74.2087
rradius 21.429
rwrist 45.6095
rhand -19.0896 -26.8272
rfingers 7.12502
rthumb 7.21864 -56.6841
lclavicle -1.49089e-015 2.38542e-015
lhumerus -31.3256 10.291 79.3108
lradius 5.95805
lwrist -1.24955
lhand -27.3848 -6.34996
lfingers 7.12502
lthumb -0.791707 23.6283
rfemur -42.0974 -3.69105 18.1416
rtibia 56.6964
rfoot -16.0419 -0.746368
rtoes 8.55185
lfemur -40.1312 11.6292 -21.6624
ltibia 53.5929
lfoot -14.1398 3.87086
ltoes -7.61683
414
root 0.548126 15.9371 0.22133 3.42369 -1.82024 0.687514
lowerback 9.88227 0.331722 -2.45908
upperback 2.73586 0.24254 1.44262
thorax -2.71026 0.126999 2.8531
lowerneck -14.3283 0.363132 -1.80195
upperneck 28.5394 0.871676 0.448939
head 11.6784 0.252294 0.599148
rclavicle 9.24349e-015 3.18055e-015
rhumerus -32.4008 -19.7827 -73.9821
rradius 21.7425
rwrist 45.3162
rhand -19.5057 -27.2062
rfingers 7.12502
rthumb 6.81703 -57.0765
lclavicle 9.24349e-015 3.18055e-015
lhumerus -30.5125 11.5316 79.2058
lradius 6.65182
lwrist -1.01996
lhand -28.451 -6.92556
lfingers 7.12502
lthumb -1.82148 23.0464
rfemur -42.5702 -3.73014 18.122
rtibia 59.2836
rfoot -17.2545 -1.32106
rtoes 7.3204
lfemur -40.6207 11.4854 -21.5034
ltibia 56.4597
lfoot -15.2855 4.84539
ltoes -8.03008
415
root 0.549809 15.825 0.287997 2.40313 -1.80061 0.560719
lowerback 11.0603 0.392065 -2.31792
upperback 3.1478 0.316068 1.5025
thorax -2.93476 0.160962 2.82785
lowerneck -14.3446 0.330101 -1.7446
upperneck 27.9881 0.793537 0.491224
head 11.4688 0.233282 0.590748
rclavicle 3.37934e-015 5.1684e-015
rhumerus -31.6649 -20.5257 -74.0513
rradius 22.1699
rwrist 44.2588
rhand -19.9495 -27.4635
rfingers 7.12502
rthumb 6.38858 -57.3472
lclavicle 3.37934e-015 5.1684e-015
lhumerus -29.9739 12.7314 79.0931
lradius 7.80115
lwrist -0.33599
lhand -29.1026 -7.62258
lfingers 7.12502
lthumb -2.45084 22.3431
rfemur -42.08 -4.00082 18.2806
rtibia 60.9608
rfoot -18.3807 -1.81399
rtoes 5.81905
lfemur -40.2174 11.5088 -21.1705
ltibia 58.4208
lfoot -16.3205 5.73563
ltoes -9.18248
416
root 0.557802 15.7515 0.353854 1.38401 -1.66254 0.280971
lowerback 12.1375 0.382777 -1.94947
upperback 3.5283 0.331765 1.60832
thorax -3.12789 0.165607 2.72896
lowerneck -14.2132 0.296817 -1.72791
upperneck 27.6077 0.715661 0.563607
head 11.2968 0.212107 0.600857
rclavicle 1.2921e-015 -7.95139e-015
rhumerus -30.9488 -20.6249 -74.3449
rradius 22.5645
rwrist 42.8883
rhand -20.4021 -27.5929
rfingers 7.12502
rthumb 5.95157 -57.4893
lclavicle 1.2921e-015 -7.95139e-015
lhumerus -29.6041 13.9216 78.9676
lradius 9.12718
lwrist 0.598241
lhand -29.17 -8.32179
lfingers 7.12502
lthumb -2.51587 21.6431
rfemur -41.1452 -4.44493 18.5748
rtibia 61.9654
rfoot -19.3217 -2.20878
rtoes 4.30763
lfemur -39.4371 11.5306 -20.7089
ltibia 59.7003
lfoot -17.1031 6.53839
ltoes -10.6546
417
root 0.569152 15.6992 0.417284 0.706696 -1.4501 -0.048385
lowerback 12.8051 0.318532 -1.50188
upperback 3.78634 0.298369 1.73207
thorax -3.21921 0.146188 2.61104
lowerneck -14.066 0.268683 -1.71276
upperneck 27.512 0.651911 0.618746
head 11.2313 0.19264 0.608533
rclavicle 1.09332e-015 -5.96354e-015
rhumerus -30.2037 -20.248 -74.7767
rradius 22.8138
rwrist 41.6909
rhand -20.8061 -27.6699
rfingers 7.12502
rthumb 5.56158 -57.5769
lclavicle 1.09332e-015 -5.96354e-015
lhumerus -29.2783 15.1124 78.8388
lradius 10.4033
lwrist 1.49448
lhand -28.6421 -8.80931
lfingers 7.12502
lthumb -2.00602 21.161
rfemur -40.3918 -4.90822 18.8941
rtibia 62.599
rfoot -20.0352 -2.53845
rtoes 2.96885
lfemur -38.8681 11.4538 -20.2744
ltibia 60.5777
lfoot -17.6302 7.25346
ltoes -12.0174
